{"asset": {"version": "2.0"}, "scene": 0, "scenes": [{"nodes": [0]}], "nodes": [{"name": "joint0", "children": [1]}, {"name": "joint1", "translation": [0, 1, 0]}], "animations": [{"name": "Swing", "samplers": [{"input": 0, "output": 1, "interpolation": "LINEAR"}], "channels": [{"sampler": 0, "target": {"node": 1, "path": "rotation"}}]}], "bufferViews": [{"buffer": 0, "byteOffset": 0, "byteLength": 12}, {"buffer": 0, "byteOffset": 12, "byteLength": 48}], "accessors": [{"bufferView": 0, "componentType": 5126, "count": 3, "type": "SCALAR", "min": [0.0], "max": [1.0]}, {"bufferView": 1, "componentType": 5126, "count": 3, "type": "VEC4"}], "buffers": [{"byteLength": 60, "uri": "data:application/octet-stream;base64,"}]}