{"asset": {"version": "2.0"}, "scene": 0, "scenes": [{"nodes": [0, 2]}], "nodes": [{"name": "joint0", "children": [1]}, {"name": "joint1", "translation": [0, 1, 0]}, {"name": "bar", "mesh": 0, "skin": 0}], "meshes": [{"primitives": [{"attributes": {"POSITION": 0, "JOINTS_0": 1, "WEIGHTS_0": 2}, "indices": 3, "material": 0}]}], "materials": [{"name": "mat", "pbrMetallicRoughness": {"baseColorFactor": [0.8, 0.3, 0.2, 1.0]}}], "skins": [{"inverseBindMatrices": 4, "joints": [0, 1]}], "animations": [{"samplers": [{"input": 5, "output": 6, "interpolation": "LINEAR"}], "channels": [{"sampler": 0, "target": {"node": 1, "path": "rotation"}}], "name": "Bend"}], "bufferViews": [{"buffer": 0, "byteOffset": 0, "byteLength": 96}, {"buffer": 0, "byteOffset": 96, "byteLength": 32}, {"buffer": 0, "byteOffset": 128, "byteLength": 128}, {"buffer": 0, "byteOffset": 256, "byteLength": 72}, {"buffer": 0, "byteOffset": 328, "byteLength": 128}, {"buffer": 0, "byteOffset": 456, "byteLength": 12}, {"buffer": 0, "byteOffset": 468, "byteLength": 48}], "accessors": [{"bufferView": 0, "componentType": 5126, "count": 8, "type": "VEC3", "min": [-0.3, 0.0, -0.3], "max": [0.3, 2.0, 0.3]}, {"bufferView": 1, "componentType": 5121, "count": 8, "type": "VEC4"}, {"bufferView": 2, "componentType": 5126, "count": 8, "type": "VEC4"}, {"bufferView": 3, "componentType": 5123, "count": 36, "type": "SCALAR"}, {"bufferView": 4, "componentType": 5126, "count": 2, "type": "MAT4"}, {"bufferView": 5, "componentType": 5126, "count": 3, "type": "SCALAR", "min": [0.0], "max": [1.0]}, {"bufferView": 6, "componentType": 5126, "count": 3, "type": "VEC4"}], "buffers": [{"byteLength": 516, "uri": "data:application/octet-stream;base64,"}]}